<svg width="224" height="46" viewBox="0 0 224 46" fill="none" xmlns="http://www.w3.org/2000/svg">
<g clip-path="url(#clip0_10_2)">
<path d="M5.49099 40.652C4.78362 39.9147 4.31073 38.9842 4.13213 37.9781C3.95353 36.972 4.07723 35.9356 4.48758 34.9998C4.89794 34.0641 5.57652 33.271 6.43756 32.7208C7.29859 32.1707 8.30342 31.8882 9.32499 31.909C10.6738 31.9443 11.956 32.5031 12.9 33.4672C13.8441 34.4312 14.3759 35.7247 14.383 37.074V37.087C14.3592 38.459 13.7987 39.7669 12.8217 40.7305C11.8448 41.694 10.5291 42.2362 9.15699 42.241H9.11099C8.43252 42.2286 7.76324 42.0817 7.14188 41.809C6.52051 41.5363 5.9594 41.143 5.49099 40.652ZM35.811 36.968C35.8399 35.5985 36.4113 34.2965 37.3996 33.3481C38.388 32.3996 39.7125 31.8824 41.082 31.91C42.4406 31.9477 43.7296 32.5191 44.6698 33.5004C45.61 34.4818 46.1257 35.7941 46.1052 37.153C46.0847 38.512 45.5296 39.8081 44.5602 40.7606C43.5908 41.7132 42.2851 42.2454 40.926 42.242H40.869C39.4993 42.2123 38.1974 41.6405 37.2489 40.6519C36.3004 39.6633 35.7829 38.3388 35.81 36.969M29.091 16.889C30.8879 15.9928 32.3443 14.5361 33.24 12.739L33.722 11.766L34.616 12.379C36.7996 13.8749 38.5892 15.8766 39.8321 18.2135C41.0749 20.5504 41.7343 23.1532 41.754 25.8C41.7569 26.3085 41.7295 26.8168 41.672 27.322L41.572 28.151L40.739 28.158C38.3776 28.1888 36.121 29.1377 34.4472 30.8037C32.7734 32.4697 31.8139 34.7218 31.772 37.083C31.7728 37.9815 31.9128 38.8744 32.187 39.73L32.45 40.55L31.657 40.885C29.552 41.7715 27.291 42.2281 25.007 42.2281C22.723 42.2281 20.462 41.7715 18.357 40.885L17.565 40.55L17.826 39.731C18.1006 38.8714 18.2396 37.9744 18.238 37.072C18.2059 34.7092 17.2496 32.453 15.5741 30.7868C13.8985 29.1205 11.6369 28.1769 9.27399 28.158H8.40799L8.33799 27.294C8.29899 26.815 8.25999 26.318 8.25999 25.811C8.27753 23.1631 8.93518 20.5586 10.1769 18.2198C11.4185 15.8809 13.2074 13.877 15.391 12.379L16.285 11.766L16.767 12.739C17.3019 13.8219 18.0452 14.7885 18.9544 15.5835C19.8637 16.3784 20.9209 16.9861 22.0654 17.3717C23.21 17.7572 24.4194 17.9131 25.6243 17.8302C26.8292 17.7474 28.006 17.4275 29.087 16.889M19.75 8.91601C19.766 7.54204 20.3222 6.22959 21.2983 5.26248C22.2744 4.29538 23.5919 3.75134 24.966 3.74801H25.028C26.4006 3.75172 27.7171 4.29323 28.695 5.2564C29.6729 6.21956 30.2344 7.52763 30.259 8.90001V8.91501C30.2686 9.61088 30.1398 10.3017 29.8802 10.9474C29.6205 11.5931 29.2352 12.1807 28.7465 12.6762C28.2578 13.1717 27.6755 13.5651 27.0335 13.8337C26.3914 14.1022 25.7024 14.2405 25.0065 14.2405C24.3106 14.2405 23.6216 14.1022 22.9795 13.8337C22.3375 13.5651 21.7552 13.1717 21.2665 12.6762C20.7778 12.1807 20.3925 11.5931 20.1328 10.9474C19.8732 10.3017 19.7444 9.61088 19.754 8.91501M23.08 0.204013C21.3562 0.576355 19.7763 1.43769 18.5295 2.68485C17.2827 3.93202 16.4218 5.51215 16.05 7.23601L15.956 7.67801L15.556 7.87801C12.2251 9.55111 9.41997 12.1102 7.44899 15.274C5.47801 18.4377 4.41748 22.0837 4.38399 25.811C4.38605 26.7661 4.45287 27.72 4.58399 28.666L4.66699 29.266L4.15099 29.591C2.50211 30.6244 1.23847 32.1709 0.554491 33.9927C-0.129485 35.8145 -0.195896 37.8105 0.365475 39.6738C0.926847 41.537 2.0849 43.1641 3.66144 44.3048C5.23799 45.4455 7.14568 46.0365 9.09099 45.987H9.13799C11.2095 45.9847 13.2199 45.2847 14.845 44L15.308 43.63L15.842 43.889C18.6974 45.2804 21.8321 46.0035 25.0085 46.0035C28.1849 46.0035 31.3196 45.2804 34.175 43.889L34.71 43.63L35.173 44C36.7953 45.293 38.8095 45.9952 40.884 45.991C43.2752 46.0148 45.5782 45.0887 47.2873 43.4161C48.9964 41.7436 49.972 39.4612 50 37.07C49.9985 35.5745 49.6165 34.104 48.89 32.7968C48.1635 31.4897 47.1163 30.3889 45.847 29.598L45.368 29.298L45.617 25.786C45.585 22.0638 44.5258 18.4226 42.556 15.2641C40.5863 12.1056 37.7825 9.5524 34.454 7.88601L34.054 7.68601L33.96 7.24501C33.7095 6.06751 33.2291 4.95102 32.5463 3.95953C31.8635 2.96803 30.9918 2.12101 29.981 1.46702C28.9703 0.813023 27.8405 0.364907 26.6563 0.148348C25.4721 -0.0682109 24.2568 -0.0499549 23.08 0.204013Z" fill="#E51D35"/>
<path d="M117.532 12.305H121.004L118.024 16.885H115.224L117.532 12.305ZM114.705 34.005H118.454V18.711H114.705V34.005ZM109.42 13.917H105.671V18.675H102.752V21.827H105.671V33.934H109.42V21.822H112.37V18.67H109.42V13.917ZM76.634 18.129C75.6822 18.0899 74.7362 18.2952 73.8863 18.7255C73.0364 19.1558 72.3109 19.7967 71.779 20.587L71.472 18.598H68V33.963H71.749V25.688C71.749 23.199 73.162 21.582 75.467 21.582C77.403 21.582 78.667 22.826 78.667 25.408V33.963H82.416V24.506C82.416 20.524 80.449 18.129 76.639 18.129M101.439 26.046C101.439 30.718 98.028 33.933 93.327 33.933C88.626 33.933 85.215 30.717 85.215 26.046C85.215 21.375 88.626 18.159 93.327 18.159C98.028 18.159 101.439 21.374 101.439 26.046ZM97.69 26.046C97.7197 25.4546 97.6289 24.8632 97.423 24.308C97.2171 23.7527 96.9005 23.2451 96.4924 22.816C96.0843 22.3869 95.5932 22.0452 95.049 21.8117C94.5047 21.5782 93.9187 21.4578 93.3265 21.4578C92.7343 21.4578 92.1483 21.5782 91.604 21.8117C91.0598 22.0452 90.5687 22.3869 90.1606 22.816C89.7525 23.2451 89.4359 23.7527 89.23 24.308C89.0241 24.8632 88.9333 25.4546 88.963 26.046C88.9333 26.6375 89.0241 27.2288 89.23 27.784C89.4359 28.3393 89.7525 28.8469 90.1606 29.276C90.5687 29.7051 91.0598 30.0468 91.604 30.2803C92.1483 30.5138 92.7343 30.6342 93.3265 30.6342C93.9187 30.6342 94.5047 30.5138 95.049 30.2803C95.5932 30.0468 96.0843 29.7051 96.4924 29.276C96.9005 28.8469 97.2171 28.3393 97.423 27.784C97.6289 27.2288 97.7197 26.6375 97.69 26.046ZM218.29 18.129C217.335 18.087 216.385 18.2846 215.527 18.7038C214.668 19.123 213.928 19.7505 213.374 20.529V10.998H209.595V33.963H213.344V25.379C213.302 24.8698 213.368 24.3574 213.54 23.8761C213.711 23.3947 213.984 22.9556 214.339 22.588C214.694 22.2204 215.123 21.9328 215.598 21.7445C216.073 21.5562 216.583 21.4715 217.093 21.496C218.993 21.496 220.258 22.71 220.258 25.227V33.962H224.007V24.348C224.007 20.465 222.041 18.129 218.292 18.129M181.75 26.498C185.161 23.616 186.881 21.28 186.881 18.186C186.881 13.696 183.9 10.996 179.107 10.996C174.344 10.996 171.207 14.151 171.179 19.005H175.079C175.11 16.153 176.646 14.455 179.104 14.455C181.47 14.455 182.853 15.881 182.853 18.399C182.853 20.522 181.839 21.979 178.797 24.527L171.453 30.655V33.998L187.032 33.968V29.929H177.694L181.75 26.498ZM203.782 25.952H206.517V29.352H203.782V33.962H200.064V29.352H188.664V25.952L198.835 11.398H203.782V25.952ZM200.064 15.581L192.843 25.956H200.064V15.581ZM159.994 24.469V33.963H156.756L156.43 31.356C155.785 32.903 153.73 33.965 151.36 33.965C148.133 33.965 146.167 32.114 146.167 29.293C146.167 26.533 148.195 24.803 151.79 24.53L156.338 24.196V23.862C156.338 21.83 155.109 21.011 153.204 21.011C150.992 21.011 149.762 21.921 149.762 23.499H146.562C146.562 20.253 149.262 18.13 153.384 18.13C157.471 18.13 159.99 20.314 159.99 24.47M156.364 26.715L153.199 26.958C150.864 27.17 149.972 27.929 149.972 29.142C149.972 30.507 150.894 31.174 152.584 31.174C153.083 31.223 153.587 31.1626 154.06 30.997C154.534 30.8314 154.965 30.5646 155.325 30.2151C155.685 29.8657 155.964 29.442 156.143 28.9736C156.323 28.5052 156.398 28.0033 156.363 27.503L156.364 26.715ZM141.099 11.121C140.799 11.115 140.501 11.1689 140.223 11.2794C139.944 11.3899 139.69 11.5549 139.476 11.7647C139.262 11.9744 139.092 12.2248 138.975 12.5011C138.859 12.7775 138.799 13.0742 138.799 13.374C138.799 13.9771 139.039 14.5555 139.465 14.982C139.892 15.4084 140.47 15.648 141.073 15.648C141.676 15.648 142.255 15.4084 142.681 14.982C143.107 14.5555 143.347 13.9771 143.347 13.374C143.349 13.0785 143.292 12.7857 143.18 12.5123C143.068 12.2389 142.903 11.9903 142.694 11.7809C142.486 11.5715 142.238 11.4054 141.965 11.2922C141.692 11.1789 141.399 11.1207 141.104 11.121M139.23 33.962H142.979V18.715H139.23V33.962ZM129.06 30.626C126.66 30.626 125.188 28.866 125.188 26.045C125.188 23.224 126.788 21.434 129.182 21.434C129.975 21.3696 130.765 21.5957 131.403 22.0702C132.042 22.5446 132.487 23.2351 132.654 24.013H136.394C135.994 20.403 133.167 18.128 129.019 18.128C124.533 18.128 121.429 21.404 121.429 26.045C121.429 30.808 124.441 33.963 129.049 33.963C133.013 33.963 135.963 31.563 136.423 28.078H132.644C132.452 28.8652 131.981 29.5564 131.32 30.0246C130.659 30.4927 129.85 30.7063 129.044 30.626" fill="white"/>
</g>
<defs>
<clipPath id="clip0_10_2">
<rect width="224" height="46" fill="white"/>
</clipPath>
</defs>
</svg>
